<svg xmlns="http://www.w3.org/2000/svg" viewBox="0 0 429.99 429.99"><path d="M74.082 330.208c-16.389 0-29.722 13.333-29.722 29.721s13.333 29.721 29.722 29.721 29.722-13.333 29.722-29.721-13.333-29.721-29.722-29.721zm0 41.442c-6.463 0-11.722-5.258-11.722-11.721s5.258-11.721 11.722-11.721 11.722 5.258 11.722 11.721-5.258 11.721-11.722 11.721zm205.994-194.765c16.388 0 29.72-13.333 29.72-29.721s-13.333-29.721-29.72-29.721c-16.388 0-29.721 13.333-29.721 29.721s13.333 29.721 29.721 29.721zm0-41.442c6.462 0 11.72 5.258 11.72 11.721s-5.258 11.721-11.72 11.721c-6.463 0-11.721-5.258-11.721-11.721s5.258-11.721 11.721-11.721zm0-35.661c16.388 0 29.72-13.333 29.72-29.72 0-16.389-13.333-29.722-29.72-29.722-16.388 0-29.721 13.333-29.721 29.722 0 16.387 13.333 29.72 29.721 29.72zm0-41.442c6.462 0 11.72 5.258 11.72 11.722 0 6.462-5.258 11.72-11.72 11.72-6.463 0-11.721-5.258-11.721-11.72 0-6.464 5.258-11.722 11.721-11.722zM420.988.002H183.524a8.27 8.27 0 00-.315 0h-66.594a8.428 8.428 0 00-.318 0h-8.598a8.428 8.428 0 00-.318 0H40.787a8.428 8.428 0 00-.318 0H9.002a9 9 0 00-9 9v411.986a9 9 0 009 9h237.46c.106.002.212.002.318 0h66.594c.106.002.211.002.318 0h8.598l.159.001.159-.001h66.594c.104.002.21.002.314 0h31.471a9 9 0 009-9V9.002a8.998 8.998 0 00-8.999-9zm-248.273 18l-22.803 133.89-22.804-133.89h45.607zm-75.827 0L74.084 151.894 51.279 18.002h45.609zm109.106 393.986H18.002V18.002H33.02l29.423 172.756a9 9 0 008.872 7.489h5.536a9 9 0 008.872-7.489l26.275-154.264 26.274 154.264a9 9 0 008.872 7.489h5.535a9 9 0 008.872-7.489l29.422-172.756h15.02v393.986zm51.279 0l22.804-133.889 22.804 133.889h-45.608zm75.828 0l22.804-133.889 22.803 133.889h-45.607zm78.887 0h-15.021l-29.422-172.756a9 9 0 00-8.872-7.489h-5.535a9 9 0 00-8.872 7.489l-26.275 154.265-26.275-154.265a9 9 0 00-8.872-7.489h-5.534a9 9 0 00-8.872 7.489l-29.424 172.756h-15.02V18.002h187.994v393.986zm-262.077-81.78c-16.389 0-29.722 13.333-29.722 29.721s13.333 29.721 29.722 29.721 29.722-13.333 29.722-29.721-13.334-29.721-29.722-29.721zm0 41.442c-6.463 0-11.722-5.258-11.722-11.721s5.258-11.721 11.722-11.721 11.722 5.258 11.722 11.721-5.259 11.721-11.722 11.721zM355.904 99.782c16.388 0 29.721-13.333 29.721-29.72 0-16.389-13.333-29.722-29.721-29.722-16.388 0-29.72 13.333-29.72 29.722 0 16.387 13.332 29.72 29.72 29.72zm0-41.442c6.463 0 11.721 5.258 11.721 11.722 0 6.462-5.258 11.72-11.721 11.72-6.462 0-11.72-5.258-11.72-11.72 0-6.464 5.258-11.722 11.72-11.722zM74.082 253.105c-16.389 0-29.722 13.333-29.722 29.721s13.333 29.721 29.722 29.721 29.722-13.333 29.722-29.721-13.333-29.721-29.722-29.721zm0 41.442c-6.463 0-11.722-5.258-11.722-11.721s5.258-11.721 11.722-11.721 11.722 5.258 11.722 11.721-5.258 11.721-11.722 11.721z"/></svg>