<svg xmlns="http://www.w3.org/2000/svg" width="256" height="256"><switch><g><linearGradient id="a" gradientUnits="userSpaceOnUse" x1="127.999" y1="8.052" x2="127.999" y2="258.728"><stop offset="0" stop-color="#f15454"/><stop offset="1" stop-color="#d93b3b"/></linearGradient><path fill="url(#a)" d="M184.586 128l63.885-63.885c10.038-10.039 10.039-26.465.002-36.507L228.393 7.53c-10.039-10.039-26.468-10.039-36.507 0L128 71.417 64.113 7.53c-10.042-10.039-26.465-10.039-36.506 0L7.529 27.607C-2.51 37.65-2.51 54.076 7.529 64.115L71.415 128 7.529 191.887c-10.039 10.042-10.039 26.47 0 36.506l20.078 20.078c10.041 10.039 26.463 10.039 36.506 0L128 184.585l63.886 63.886c10.039 10.039 26.468 10.039 36.507 0l20.08-20.078c10.037-10.036 10.036-26.464-.002-36.506L184.586 128z"/><path fill="#2C2C2C" d="M68.822 125.407l2.593-2.594L7.529 58.928C3.166 54.566.704 48.996.134 43.27c-.743 7.451 1.719 15.169 7.395 20.845l61.293 61.292zm179.649-61.292c5.676-5.677 8.138-13.395 7.395-20.847-.569 5.728-3.032 11.297-7.395 15.66l-63.885 63.885 2.593 2.594 61.292-61.292zm7.394 143.435c-.569 5.729-3.03 11.297-7.393 15.657l-20.08 20.078c-10.039 10.039-26.468 10.036-36.507 0L128 179.4l-63.887 63.885c-10.042 10.036-26.465 10.039-36.506 0L7.529 223.207c-4.363-4.362-6.825-9.931-7.395-15.658-.743 7.451 1.719 15.17 7.395 20.844l20.078 20.078c10.041 10.039 26.463 10.039 36.506 0L128 184.585l63.886 63.886c10.039 10.039 26.468 10.039 36.507 0l20.08-20.078c5.675-5.674 8.135-13.391 7.392-20.843z" opacity=".2"/></g></switch></svg>