<svg xmlns="http://www.w3.org/2000/svg" width="475.652" height="475.653"><path d="M468.86 128.452L243.999 1.613a12.5 12.5 0 00-12.281-.001L6.794 128.451a12.499 12.499 0 00-6.36 10.888v24.921a12.498 12.498 0 0012.502 12.5l22.337-.003v202.425c-.001.063-.01.127-.01.192v22.606h-22.28c-6.903 0-12.5 5.597-12.5 12.5v48.672c0 6.902 5.597 12.5 12.5 12.5h449.734c6.904 0 12.5-5.598 12.5-12.5V414.48c0-6.903-5.596-12.5-12.5-12.5h-22.275v-22.606c0-.072-.01-.141-.012-.213v-202.46l22.289-.003c6.902-.001 12.498-5.597 12.498-12.5V139.34a12.488 12.488 0 00-6.357-10.888zm-338.278 49.302v194.294h-70.31V177.754h70.31zm284.849 0v194.294h-70.305V177.754h70.305zm-82.805 219.294h82.816v17.434c0 6.902 5.596 12.5 12.5 12.5h22.275v23.672H25.484v-23.672h22.279c6.903 0 12.5-5.598 12.5-12.5v-17.434h82.818c6.903 0 12.5-5.596 12.5-12.5V176.741l22.119-.003v207.811c0 6.904 5.597 12.5 12.5 12.5h95.307c6.902 0 12.5-5.596 12.5-12.5V176.721l22.119-.003v207.831c0 6.903 5.598 12.499 12.5 12.499zm-59.618-219.294v194.294h-70.307V177.754h70.307zM450.22 151.7l-424.785.058v-5.117l212.421-119.79 212.362 119.79v5.059h.002z"/></svg>